<svg width="78" height="82" viewBox="0 0 78 82" fill="none" xmlns="http://www.w3.org/2000/svg">
<rect width="78" height="82" rx="15" fill="url(#paint0_linear_1_109)"/>
<path d="M51.955 46.775C51.955 49.745 51.145 52.025 49.525 53.615C47.935 55.205 45.7 56 42.82 56H38.5C34.96 56 32.44 55.385 30.94 54.155C29.47 52.925 28.735 50.795 28.735 47.765V23.96H42.28C45.34 23.96 47.635 24.725 49.165 26.255C50.725 27.785 51.505 29.945 51.505 32.735C51.505 34.355 51.085 35.735 50.245 36.875C49.435 38.015 48.535 38.825 47.545 39.305C50.485 40.685 51.955 43.175 51.955 46.775ZM41.785 36.47C44.095 36.47 45.25 35.315 45.25 33.005C45.25 30.695 44.095 29.54 41.785 29.54H34.99V36.47H41.785ZM45.7 46.46C45.7 45.02 45.445 43.94 44.935 43.22C44.425 42.47 43.51 42.095 42.19 42.095H34.99V47.135C34.99 48.365 35.29 49.22 35.89 49.7C36.52 50.18 37.54 50.42 38.95 50.42H42.19C44.53 50.42 45.7 49.1 45.7 46.46Z" fill="#1F2223"/>
<path d="M65.824 66.8L66.176 65.04L67.168 65.504C67.5733 64.992 67.776 64.3253 67.776 63.504C67.776 63.2907 67.648 63.056 67.392 62.8C67.1467 62.544 66.7573 62.416 66.224 62.416C65.7013 62.416 65.344 62.5333 65.152 62.768C64.96 63.0027 64.864 63.4453 64.864 64.096H62.912C62.912 62.8693 63.1893 61.968 63.744 61.392C64.3093 60.8053 65.1573 60.512 66.288 60.512C68.6133 60.512 69.776 61.504 69.776 63.488C69.776 64.6507 69.424 65.5947 68.72 66.32C69.5307 66.7787 69.936 67.648 69.936 68.928C69.936 69.92 69.616 70.6987 68.976 71.264C68.3467 71.8187 67.4613 72.096 66.32 72.096C65.1787 72.096 64.3253 71.8027 63.76 71.216C63.2053 70.6293 62.928 69.8453 62.928 68.864H64.96C64.96 69.0453 64.9813 69.2267 65.024 69.408C65.0773 69.5787 65.2053 69.7547 65.408 69.936C65.6107 70.1067 65.9307 70.192 66.368 70.192C66.816 70.192 67.1733 70.0533 67.44 69.776C67.7173 69.488 67.856 69.168 67.856 68.816C67.856 68.4427 67.7867 68.1707 67.648 68C67.52 67.8293 67.424 67.7067 67.36 67.632C67.296 67.5467 67.1733 67.456 66.992 67.36C66.8213 67.264 66.704 67.2 66.64 67.168C66.576 67.1253 66.432 67.0613 66.208 66.976C65.9947 66.88 65.8667 66.8213 65.824 66.8Z" fill="black"/>
<defs>
<linearGradient id="paint0_linear_1_109" x1="1.73059e-07" y1="5.5" x2="55" y2="82" gradientUnits="userSpaceOnUse">
<stop stop-color="#CEF4F7"/>
<stop offset="1" stop-color="#AFD6DF"/>
</linearGradient>
</defs>
</svg>
