<svg width="78" height="82" viewBox="0 0 78 82" fill="none" xmlns="http://www.w3.org/2000/svg">
<rect width="78" height="82" rx="15" fill="url(#paint0_linear_1_133)"/>
<path d="M29.935 43.58H35.74C35.74 47.66 34.72 50.795 32.68 52.985C30.64 55.175 27.76 56.27 24.04 56.27C15.85 56.27 11.755 51.455 11.755 41.825V39.125C11.755 31.535 13.855 26.78 18.055 24.86C19.705 24.08 21.7 23.69 24.04 23.69C27.46 23.69 30.235 24.635 32.365 26.525C34.525 28.385 35.605 31.085 35.605 34.625H29.755C29.425 32.855 28.84 31.52 28 30.62C27.16 29.72 25.84 29.27 24.04 29.27C21.94 29.27 20.38 29.93 19.36 31.25C18.64 32.18 18.22 33.77 18.1 36.02C18.04 36.74 18.01 37.715 18.01 38.945V41.735C18.01 45.185 18.49 47.54 19.45 48.8C20.44 50.06 21.97 50.69 24.04 50.69C26.14 50.69 27.58 50.12 28.36 48.98C29.17 47.81 29.695 46.01 29.935 43.58ZM64.874 56H58.619V43.04H46.874V56H40.619V23.96H46.874V37.505H58.619V23.96H64.874V56Z" fill="#1F2223"/>
<path d="M63.232 60.8H69.264V62.576H65.28V64.368C66.9227 64.368 68.048 64.704 68.656 65.376C69.2747 66.048 69.584 67.0293 69.584 68.32C69.584 70.8373 68.368 72.096 65.936 72.096C64.816 72.096 63.9733 71.8027 63.408 71.216C62.8533 70.6293 62.576 69.8453 62.576 68.864H64.608C64.608 69.0453 64.6293 69.2267 64.672 69.408C64.7253 69.5787 64.8533 69.7547 65.056 69.936C65.2587 70.1067 65.5307 70.192 65.872 70.192C66.4373 70.192 66.848 70.0373 67.104 69.728C67.3707 69.408 67.504 69.0347 67.504 68.608C67.504 68.1813 67.472 67.8453 67.408 67.6C67.3547 67.3547 67.232 67.104 67.04 66.848C66.656 66.3147 65.7973 66.048 64.464 66.048H63.232V60.8Z" fill="black"/>
<defs>
<linearGradient id="paint0_linear_1_133" x1="1.73059e-07" y1="5.5" x2="55" y2="82" gradientUnits="userSpaceOnUse">
<stop stop-color="#CEF4F7"/>
<stop offset="1" stop-color="#AFD6DF"/>
</linearGradient>
</defs>
</svg>
