<svg width="78" height="82" viewBox="0 0 78 82" fill="none" xmlns="http://www.w3.org/2000/svg">
<rect width="78" height="82" rx="15" fill="url(#paint0_linear_1_137)"/>
<path d="M52.9 39.845L52.945 43.31C52.825 45.5 52.555 47.345 52.135 48.845C51.715 50.345 50.89 51.71 49.66 52.94C47.62 54.98 44.65 56 40.75 56C36.16 56 33.01 55.4 31.3 54.2C29.59 52.97 28.735 50.765 28.735 47.585V23.96H41.2C44.8 23.96 47.62 24.98 49.66 27.02C51.31 28.67 52.285 30.68 52.585 33.05C52.795 34.73 52.9 36.995 52.9 39.845ZM45.295 48.44C45.865 47.75 46.225 46.805 46.375 45.605C46.555 44.375 46.645 42.47 46.645 39.89C46.645 37.31 46.555 35.45 46.375 34.31C46.225 33.14 45.865 32.21 45.295 31.52C44.215 30.2 42.655 29.54 40.615 29.54H34.99V47.27C34.99 48.47 35.395 49.295 36.205 49.745C37.015 50.195 38.455 50.42 40.525 50.42C42.625 50.42 44.215 49.76 45.295 48.44Z" fill="#1F2223"/>
<path d="M69.84 72H64.384C63.9147 72 63.5147 71.904 63.184 71.712C62.8533 71.52 62.688 71.2 62.688 70.752C62.688 70.3787 62.8213 70.016 63.088 69.664C63.184 69.5467 63.344 69.3653 63.568 69.12L65.28 67.216C65.7707 66.7253 66.16 66.2827 66.448 65.888C66.736 65.4827 66.9493 65.1787 67.088 64.976C67.2267 64.7733 67.3333 64.5973 67.408 64.448C67.5893 64.0853 67.68 63.776 67.68 63.52C67.68 63.264 67.5787 63.0133 67.376 62.768C67.184 62.512 66.8267 62.384 66.304 62.384C65.792 62.384 65.4347 62.5333 65.232 62.832C65.04 63.1307 64.944 63.552 64.944 64.096H62.848C62.848 63.552 62.8907 63.088 62.976 62.704C63.0613 62.3093 63.2267 61.936 63.472 61.584C63.952 60.8693 64.944 60.512 66.448 60.512C67.568 60.512 68.432 60.7413 69.04 61.2C69.648 61.6587 69.952 62.3147 69.952 63.168C69.952 63.6907 69.8293 64.2347 69.584 64.8C69.3493 65.3547 69.0987 65.8027 68.832 66.144C68.5653 66.4853 68.2507 66.864 67.888 67.28C67.5253 67.696 67.312 67.9467 67.248 68.032L65.44 70.128H69.84V72Z" fill="black"/>
<defs>
<linearGradient id="paint0_linear_1_137" x1="1.73059e-07" y1="5.5" x2="55" y2="82" gradientUnits="userSpaceOnUse">
<stop stop-color="#CEF4F7"/>
<stop offset="1" stop-color="#AFD6DF"/>
</linearGradient>
</defs>
</svg>
