<svg width="172" height="61" viewBox="0 0 172 61" fill="none" xmlns="http://www.w3.org/2000/svg">
<g filter="url(#filter0_d_10_70)">
<rect x="4" width="164" height="53" rx="15" fill="#CCDABE"/>
</g>
<path d="M59.8828 38H47.9443V16.584H59.8828V18.7959H50.4346V25.6953H59.3115V27.8926H50.4346V35.7734H59.8828V38ZM75.2637 38V27.6143C75.2637 26.3057 74.9658 25.3291 74.3701 24.6846C73.7744 24.04 72.8418 23.7178 71.5723 23.7178C69.8926 23.7178 68.6621 24.1719 67.8809 25.0801C67.0996 25.9883 66.709 27.4873 66.709 29.5771V38H64.2773V21.9453H66.2549L66.6504 24.1426H66.7676C67.2656 23.3516 67.9639 22.7412 68.8623 22.3115C69.7607 21.8721 70.7617 21.6523 71.8652 21.6523C73.7988 21.6523 75.2539 22.1211 76.2305 23.0586C77.207 23.9863 77.6953 25.4756 77.6953 27.5264V38H75.2637ZM86.2207 38L80.127 21.9453H82.7344L86.1914 31.4668C86.9727 33.6934 87.4316 35.1387 87.5684 35.8027H87.6855C87.793 35.2852 88.1299 34.2158 88.6963 32.5947C89.2725 30.9639 90.5566 27.4141 92.5488 21.9453H95.1562L89.0625 38H86.2207ZM100.166 38H97.7344V21.9453H100.166V38ZM97.5293 17.5947C97.5293 17.0381 97.666 16.6328 97.9395 16.3789C98.2129 16.1152 98.5547 15.9834 98.9648 15.9834C99.3555 15.9834 99.6924 16.1152 99.9756 16.3789C100.259 16.6426 100.4 17.0479 100.4 17.5947C100.4 18.1416 100.259 18.5518 99.9756 18.8252C99.6924 19.0889 99.3555 19.2207 98.9648 19.2207C98.5547 19.2207 98.2129 19.0889 97.9395 18.8252C97.666 18.5518 97.5293 18.1416 97.5293 17.5947ZM115.195 38L114.712 35.7148H114.595C113.794 36.7207 112.993 37.4043 112.192 37.7656C111.401 38.1172 110.41 38.293 109.219 38.293C107.627 38.293 106.377 37.8828 105.469 37.0625C104.57 36.2422 104.121 35.0752 104.121 33.5615C104.121 30.3193 106.714 28.6201 111.899 28.4639L114.624 28.376V27.3799C114.624 26.1201 114.351 25.1924 113.804 24.5967C113.267 23.9912 112.402 23.6885 111.211 23.6885C109.873 23.6885 108.359 24.0986 106.67 24.9189L105.923 23.0586C106.714 22.6289 107.578 22.292 108.516 22.0479C109.463 21.8037 110.41 21.6816 111.357 21.6816C113.271 21.6816 114.688 22.1064 115.605 22.9561C116.533 23.8057 116.997 25.168 116.997 27.043V38H115.195ZM109.702 36.2861C111.216 36.2861 112.402 35.8711 113.262 35.041C114.131 34.2109 114.565 33.0488 114.565 31.5547V30.1045L112.134 30.207C110.2 30.2754 108.804 30.5781 107.944 31.1152C107.095 31.6426 106.67 32.4678 106.67 33.5908C106.67 34.4697 106.934 35.1387 107.461 35.5977C107.998 36.0566 108.745 36.2861 109.702 36.2861ZM129.346 21.6523C130.059 21.6523 130.698 21.7109 131.265 21.8281L130.928 24.084C130.264 23.9375 129.678 23.8643 129.17 23.8643C127.871 23.8643 126.758 24.3916 125.83 25.4463C124.912 26.501 124.453 27.8145 124.453 29.3867V38H122.021V21.9453H124.028L124.307 24.9189H124.424C125.02 23.874 125.737 23.0684 126.577 22.502C127.417 21.9355 128.34 21.6523 129.346 21.6523Z" fill="#1F2223"/>
<defs>
<filter id="filter0_d_10_70" x="0" y="0" width="172" height="61" filterUnits="userSpaceOnUse" color-interpolation-filters="sRGB">
<feFlood flood-opacity="0" result="BackgroundImageFix"/>
<feColorMatrix in="SourceAlpha" type="matrix" values="0 0 0 0 0 0 0 0 0 0 0 0 0 0 0 0 0 0 127 0" result="hardAlpha"/>
<feOffset dy="4"/>
<feGaussianBlur stdDeviation="2"/>
<feComposite in2="hardAlpha" operator="out"/>
<feColorMatrix type="matrix" values="0 0 0 0 0 0 0 0 0 0 0 0 0 0 0 0 0 0 0.25 0"/>
<feBlend mode="normal" in2="BackgroundImageFix" result="effect1_dropShadow_10_70"/>
<feBlend mode="normal" in="SourceGraphic" in2="effect1_dropShadow_10_70" result="shape"/>
</filter>
</defs>
</svg>
