<svg width="78" height="82" viewBox="0 0 78 82" fill="none" xmlns="http://www.w3.org/2000/svg">
<rect width="78" height="82" rx="15" fill="url(#paint0_linear_1_205)"/>
<path d="M49.84 29.54H38.545C37.225 29.54 36.295 29.795 35.755 30.305C35.245 30.815 34.99 31.7 34.99 32.96V37.415H46.735L46.285 42.995H34.99V56H28.735V30.485C28.735 28.115 29.245 26.435 30.265 25.445C31.315 24.455 33.1 23.96 35.62 23.96H49.84V29.54Z" fill="#1F2223"/>
<path d="M70.8 69.552H69.52V72H67.536V69.552H64.224C63.68 69.552 63.2693 69.44 62.992 69.216C62.7253 68.9813 62.592 68.6613 62.592 68.256C62.592 68.0427 62.6827 67.664 62.864 67.12C63.0453 66.576 63.552 65.1787 64.384 62.928H66.608L64.864 67.584H67.536V60.608H69.52V67.584H70.8V69.552Z" fill="black"/>
<defs>
<linearGradient id="paint0_linear_1_205" x1="1.73059e-07" y1="5.5" x2="55" y2="82" gradientUnits="userSpaceOnUse">
<stop stop-color="#CEF4F7"/>
<stop offset="1" stop-color="#AFD6DF"/>
</linearGradient>
</defs>
</svg>
