<svg width="78" height="82" viewBox="0 0 78 82" fill="none" xmlns="http://www.w3.org/2000/svg">
<rect width="78" height="82" rx="15" fill="url(#paint0_linear_1_210)"/>
<path d="M26.755 40.925V36.965C26.755 32.795 27.85 29.54 30.04 27.2C32.23 24.86 35.26 23.69 39.13 23.69C43 23.69 46.105 24.86 48.445 27.2C50.095 28.85 50.92 31.325 50.92 34.625H45.07C45.07 31.055 43.165 29.27 39.355 29.27C38.215 29.27 37.24 29.495 36.43 29.945C35.65 30.365 35.065 30.86 34.675 31.43C34.285 32 33.985 32.84 33.775 33.95C33.565 35.06 33.445 35.99 33.415 36.74C33.385 37.49 33.37 38.495 33.37 39.755C33.37 41.015 33.37 41.87 33.37 42.32C33.4 42.74 33.445 43.445 33.505 44.435C33.595 45.395 33.715 46.085 33.865 46.505C34.045 46.925 34.285 47.465 34.585 48.125C34.915 48.785 35.32 49.25 35.8 49.52C37.03 50.3 38.425 50.69 39.985 50.69C42.595 50.69 44.44 49.58 45.52 47.36V45.2H41.65V39.98H50.875V49.655C49.945 51.845 48.475 53.495 46.465 54.605C44.455 55.715 42.175 56.27 39.625 56.27C35.095 56.27 31.81 55.01 29.77 52.49C27.76 49.94 26.755 46.085 26.755 40.925Z" fill="#1F2223"/>
<path d="M69.84 72H64.384C63.9147 72 63.5147 71.904 63.184 71.712C62.8533 71.52 62.688 71.2 62.688 70.752C62.688 70.3787 62.8213 70.016 63.088 69.664C63.184 69.5467 63.344 69.3653 63.568 69.12L65.28 67.216C65.7707 66.7253 66.16 66.2827 66.448 65.888C66.736 65.4827 66.9493 65.1787 67.088 64.976C67.2267 64.7733 67.3333 64.5973 67.408 64.448C67.5893 64.0853 67.68 63.776 67.68 63.52C67.68 63.264 67.5787 63.0133 67.376 62.768C67.184 62.512 66.8267 62.384 66.304 62.384C65.792 62.384 65.4347 62.5333 65.232 62.832C65.04 63.1307 64.944 63.552 64.944 64.096H62.848C62.848 63.552 62.8907 63.088 62.976 62.704C63.0613 62.3093 63.2267 61.936 63.472 61.584C63.952 60.8693 64.944 60.512 66.448 60.512C67.568 60.512 68.432 60.7413 69.04 61.2C69.648 61.6587 69.952 62.3147 69.952 63.168C69.952 63.6907 69.8293 64.2347 69.584 64.8C69.3493 65.3547 69.0987 65.8027 68.832 66.144C68.5653 66.4853 68.2507 66.864 67.888 67.28C67.5253 67.696 67.312 67.9467 67.248 68.032L65.44 70.128H69.84V72Z" fill="black"/>
<defs>
<linearGradient id="paint0_linear_1_210" x1="1.73059e-07" y1="5.5" x2="55" y2="82" gradientUnits="userSpaceOnUse">
<stop stop-color="#CEF4F7"/>
<stop offset="1" stop-color="#AFD6DF"/>
</linearGradient>
</defs>
</svg>
