<svg width="78" height="82" viewBox="0 0 78 82" fill="none" xmlns="http://www.w3.org/2000/svg">
<rect width="78" height="82" rx="15" fill="url(#paint0_linear_1_270)"/>
<path d="M37.49 56H27.95C24.35 56 21.74 55.31 20.12 53.93C18.53 52.52 17.735 50.24 17.735 47.09V23.96H23.99V47.09C23.99 48.35 24.275 49.22 24.845 49.7C25.415 50.18 26.45 50.42 27.95 50.42H37.49V56ZM62.2312 56H52.6912C49.0912 56 46.4812 55.31 44.8612 53.93C43.2712 52.52 42.4762 50.24 42.4762 47.09V23.96H48.7312V47.09C48.7312 48.35 49.0162 49.22 49.5862 49.7C50.1562 50.18 51.1912 50.42 52.6912 50.42H62.2312V56Z" fill="#1F2223"/>
<path d="M62.832 68.848C62.832 68.4107 62.9333 67.92 63.136 67.376C63.3387 66.832 63.5733 66.3627 63.84 65.968C63.2747 65.424 62.992 64.6507 62.992 63.648C62.992 61.5573 64.1547 60.512 66.48 60.512C67.632 60.512 68.528 60.768 69.168 61.28C69.808 61.792 70.128 62.5867 70.128 63.664C70.128 64.7413 69.7493 65.728 68.992 66.624C69.7493 67.136 70.128 67.8773 70.128 68.848C70.128 70.0533 69.8293 70.896 69.232 71.376C68.6347 71.856 67.728 72.096 66.512 72.096C65.3067 72.096 64.3893 71.824 63.76 71.28C63.1413 70.7253 62.832 69.9147 62.832 68.848ZM65.12 63.84C65.12 64.192 65.2907 64.5173 65.632 64.816C65.984 65.1147 66.592 65.4667 67.456 65.872C67.9147 65.296 68.144 64.64 68.144 63.904C68.144 63.456 68.0107 63.0987 67.744 62.832C67.4773 62.5547 67.072 62.416 66.528 62.416C65.5893 62.416 65.12 62.8907 65.12 63.84ZM64.912 68.912C64.912 69.2747 65.0453 69.568 65.312 69.792C65.5893 70.016 65.9947 70.128 66.528 70.128C67.072 70.128 67.4613 70.0267 67.696 69.824C67.9307 69.6213 68.048 69.3067 68.048 68.88C68.048 68.5813 67.84 68.2507 67.424 67.888C67.008 67.5253 66.3627 67.1627 65.488 66.8C65.104 67.3867 64.912 68.0907 64.912 68.912Z" fill="black"/>
<defs>
<linearGradient id="paint0_linear_1_270" x1="1.73059e-07" y1="5.5" x2="55" y2="82" gradientUnits="userSpaceOnUse">
<stop stop-color="#CEF4F7"/>
<stop offset="1" stop-color="#AFD6DF"/>
</linearGradient>
</defs>
</svg>
