<svg width="220" height="58" viewBox="0 0 220 58" fill="none" xmlns="http://www.w3.org/2000/svg">
<g filter="url(#filter0_d_22_4)">
<path d="M4 15C4 6.71573 10.7157 0 19 0H201C209.284 0 216 6.71573 216 15V35C216 43.2843 209.284 50 201 50H19C10.7157 50 4 43.2843 4 35V15Z" fill="#F0DEDC"/>
</g>
<g filter="url(#filter1_d_22_4)">
<path d="M4 15C4 6.71573 10.7157 0 19 0H201C209.284 0 216 6.71573 216 15V35C216 43.2843 209.284 50 201 50H19C10.7157 50 4 43.2843 4 35V15Z" fill="#E7D1CE"/>
</g>
<path d="M31.4536 35V17.1533H33.5288V33.1201H41.4023V35H31.4536ZM52.3643 35L51.9614 33.0957H51.8638C51.1965 33.9339 50.5291 34.5036 49.8618 34.8047C49.2026 35.0977 48.3766 35.2441 47.3838 35.2441C46.0573 35.2441 45.0156 34.9023 44.2588 34.2188C43.5101 33.5352 43.1357 32.5627 43.1357 31.3013C43.1357 28.5994 45.2964 27.1834 49.6177 27.0532L51.8882 26.98V26.1499C51.8882 25.1001 51.6603 24.327 51.2046 23.8306C50.757 23.326 50.0368 23.0737 49.0439 23.0737C47.929 23.0737 46.6676 23.4155 45.2598 24.0991L44.6372 22.5488C45.2964 22.1908 46.0166 21.91 46.7979 21.7065C47.5872 21.5031 48.3766 21.4014 49.166 21.4014C50.7611 21.4014 51.9411 21.7554 52.7061 22.4634C53.4792 23.1714 53.8657 24.3066 53.8657 25.8691V35H52.3643ZM47.7866 33.5718C49.048 33.5718 50.0368 33.2259 50.7529 32.5342C51.4772 31.8424 51.8394 30.874 51.8394 29.6289V28.4204L49.813 28.5059C48.2017 28.5628 47.0379 28.8151 46.3218 29.2627C45.6138 29.7021 45.2598 30.3898 45.2598 31.3257C45.2598 32.0581 45.4795 32.6156 45.9189 32.998C46.3665 33.3805 46.9891 33.5718 47.7866 33.5718ZM64.1562 21.377C64.7503 21.377 65.2834 21.4258 65.7554 21.5234L65.4746 23.4033C64.9212 23.2812 64.4329 23.2202 64.0098 23.2202C62.9274 23.2202 61.9997 23.6597 61.2266 24.5386C60.4616 25.4175 60.0791 26.512 60.0791 27.8223V35H58.0527V21.6211H59.7251L59.957 24.0991H60.0547C60.5511 23.2284 61.1493 22.557 61.8491 22.085C62.549 21.613 63.318 21.377 64.1562 21.377ZM79.2075 21.6211V22.9028L76.7295 23.1958C76.9574 23.4806 77.1608 23.855 77.3398 24.3188C77.5189 24.7746 77.6084 25.2913 77.6084 25.8691C77.6084 27.1794 77.1608 28.2251 76.2656 29.0063C75.3704 29.7876 74.1416 30.1782 72.5791 30.1782C72.1803 30.1782 71.806 30.1457 71.4561 30.0806C70.5934 30.5363 70.1621 31.11 70.1621 31.8018C70.1621 32.168 70.3127 32.4406 70.6138 32.6196C70.9149 32.7905 71.4316 32.876 72.1641 32.876H74.5322C75.9808 32.876 77.0916 33.1812 77.8647 33.7915C78.646 34.4019 79.0366 35.2889 79.0366 36.4526C79.0366 37.9338 78.4425 39.0609 77.2544 39.834C76.0662 40.6152 74.3328 41.0059 72.0542 41.0059C70.3045 41.0059 68.9536 40.6803 68.0015 40.0293C67.0575 39.3783 66.5854 38.4587 66.5854 37.2705C66.5854 36.4567 66.8459 35.7528 67.3667 35.1587C67.8875 34.5646 68.62 34.1618 69.564 33.9502C69.2222 33.7956 68.9333 33.5555 68.6973 33.23C68.4694 32.9045 68.3555 32.526 68.3555 32.0947C68.3555 31.6064 68.4857 31.1792 68.7461 30.813C69.0065 30.4468 69.4175 30.0928 69.979 29.751C69.2873 29.4661 68.7217 28.9819 68.2822 28.2983C67.8509 27.6147 67.6353 26.8335 67.6353 25.9546C67.6353 24.4897 68.0747 23.3626 68.9536 22.5732C69.8325 21.7757 71.0776 21.377 72.689 21.377C73.3888 21.377 74.0195 21.4583 74.5811 21.6211H79.2075ZM68.5386 37.2461C68.5386 37.9704 68.8438 38.5197 69.4541 38.894C70.0645 39.2684 70.9393 39.4556 72.0786 39.4556C73.7795 39.4556 75.0368 39.1992 75.8506 38.6865C76.6725 38.182 77.0835 37.4943 77.0835 36.6235C77.0835 35.8993 76.8597 35.3947 76.4121 35.1099C75.9645 34.8332 75.1222 34.6948 73.8853 34.6948H71.4561C70.5365 34.6948 69.8203 34.9146 69.3076 35.354C68.7949 35.7935 68.5386 36.4242 68.5386 37.2461ZM69.6372 25.9058C69.6372 26.8416 69.9017 27.5496 70.4307 28.0298C70.9596 28.5099 71.6961 28.75 72.6401 28.75C74.6177 28.75 75.6064 27.7897 75.6064 25.8691C75.6064 23.859 74.6055 22.854 72.6035 22.854C71.6514 22.854 70.9189 23.1104 70.4062 23.623C69.8936 24.1357 69.6372 24.8966 69.6372 25.9058ZM93.502 28.2983C93.502 30.4793 92.9526 32.1842 91.854 33.4131C90.7554 34.6338 89.2376 35.2441 87.3008 35.2441C86.1045 35.2441 85.0425 34.9634 84.1147 34.4019C83.187 33.8403 82.4709 33.0347 81.9663 31.9849C81.4618 30.9351 81.2095 29.7062 81.2095 28.2983C81.2095 26.1174 81.7547 24.4206 82.8452 23.208C83.9357 21.9873 85.4494 21.377 87.3862 21.377C89.258 21.377 90.7432 21.9995 91.8418 23.2446C92.9486 24.4897 93.502 26.1743 93.502 28.2983ZM83.3091 28.2983C83.3091 30.0073 83.6509 31.3094 84.3345 32.2046C85.0181 33.0998 86.0231 33.5474 87.3496 33.5474C88.6761 33.5474 89.6812 33.1038 90.3647 32.2168C91.0565 31.3216 91.4023 30.0155 91.4023 28.2983C91.4023 26.5975 91.0565 25.3076 90.3647 24.4287C89.6812 23.5417 88.668 23.0981 87.3252 23.0981C85.9987 23.0981 84.9977 23.5335 84.3223 24.4043C83.6468 25.2751 83.3091 26.5731 83.3091 28.2983ZM109.786 35.2441C108.915 35.2441 108.118 35.0854 107.394 34.7681C106.677 34.4425 106.075 33.9461 105.587 33.2788H105.44C105.538 34.0601 105.587 34.8006 105.587 35.5005V41.0059H103.561V21.6211H105.208L105.489 23.4521H105.587C106.108 22.7197 106.714 22.1908 107.406 21.8652C108.097 21.5397 108.891 21.377 109.786 21.377C111.56 21.377 112.927 21.9832 113.888 23.1958C114.856 24.4084 115.34 26.1092 115.34 28.2983C115.34 30.4956 114.848 32.2046 113.863 33.4253C112.887 34.6379 111.528 35.2441 109.786 35.2441ZM109.493 23.0981C108.126 23.0981 107.137 23.4766 106.527 24.2334C105.917 24.9902 105.603 26.1947 105.587 27.8467V28.2983C105.587 30.1782 105.9 31.5251 106.527 32.3389C107.153 33.1445 108.159 33.5474 109.542 33.5474C110.698 33.5474 111.601 33.0794 112.252 32.1436C112.911 31.2077 113.241 29.9178 113.241 28.2739C113.241 26.6056 112.911 25.328 112.252 24.4409C111.601 23.5457 110.681 23.0981 109.493 23.0981ZM127.12 35L126.717 33.0957H126.62C125.952 33.9339 125.285 34.5036 124.618 34.8047C123.958 35.0977 123.132 35.2441 122.14 35.2441C120.813 35.2441 119.771 34.9023 119.015 34.2188C118.266 33.5352 117.892 32.5627 117.892 31.3013C117.892 28.5994 120.052 27.1834 124.374 27.0532L126.644 26.98V26.1499C126.644 25.1001 126.416 24.327 125.96 23.8306C125.513 23.326 124.793 23.0737 123.8 23.0737C122.685 23.0737 121.424 23.4155 120.016 24.0991L119.393 22.5488C120.052 22.1908 120.772 21.91 121.554 21.7065C122.343 21.5031 123.132 21.4014 123.922 21.4014C125.517 21.4014 126.697 21.7554 127.462 22.4634C128.235 23.1714 128.622 24.3066 128.622 25.8691V35H127.12ZM122.542 33.5718C123.804 33.5718 124.793 33.2259 125.509 32.5342C126.233 31.8424 126.595 30.874 126.595 29.6289V28.4204L124.569 28.5059C122.958 28.5628 121.794 28.8151 121.078 29.2627C120.37 29.7021 120.016 30.3898 120.016 31.3257C120.016 32.0581 120.235 32.6156 120.675 32.998C121.122 33.3805 121.745 33.5718 122.542 33.5718ZM134.835 35H132.809V16.0059H134.835V35ZM147.359 35L146.957 33.0957H146.859C146.192 33.9339 145.524 34.5036 144.857 34.8047C144.198 35.0977 143.372 35.2441 142.379 35.2441C141.052 35.2441 140.011 34.9023 139.254 34.2188C138.505 33.5352 138.131 32.5627 138.131 31.3013C138.131 28.5994 140.292 27.1834 144.613 27.0532L146.883 26.98V26.1499C146.883 25.1001 146.655 24.327 146.2 23.8306C145.752 23.326 145.032 23.0737 144.039 23.0737C142.924 23.0737 141.663 23.4155 140.255 24.0991L139.632 22.5488C140.292 22.1908 141.012 21.91 141.793 21.7065C142.582 21.5031 143.372 21.4014 144.161 21.4014C145.756 21.4014 146.936 21.7554 147.701 22.4634C148.474 23.1714 148.861 24.3066 148.861 25.8691V35H147.359ZM142.782 33.5718C144.043 33.5718 145.032 33.2259 145.748 32.5342C146.472 31.8424 146.834 30.874 146.834 29.6289V28.4204L144.808 28.5059C143.197 28.5628 142.033 28.8151 141.317 29.2627C140.609 29.7021 140.255 30.3898 140.255 31.3257C140.255 32.0581 140.475 32.6156 140.914 32.998C141.362 33.3805 141.984 33.5718 142.782 33.5718ZM159.273 21.4014C161.031 21.4014 162.394 22.0036 163.363 23.208C164.339 24.4043 164.828 26.1011 164.828 28.2983C164.828 30.4956 164.335 32.2046 163.351 33.4253C162.374 34.6379 161.015 35.2441 159.273 35.2441C158.403 35.2441 157.605 35.0854 156.881 34.7681C156.165 34.4425 155.562 33.9461 155.074 33.2788H154.928L154.5 35H153.048V16.0059H155.074V20.6201C155.074 21.6536 155.042 22.5814 154.977 23.4033H155.074C156.018 22.0687 157.418 21.4014 159.273 21.4014ZM158.98 23.0981C157.597 23.0981 156.6 23.4969 155.99 24.2944C155.379 25.0838 155.074 26.4185 155.074 28.2983C155.074 30.1782 155.388 31.5251 156.014 32.3389C156.641 33.1445 157.646 33.5474 159.029 33.5474C160.274 33.5474 161.202 33.0957 161.812 32.1924C162.423 31.2809 162.728 29.9748 162.728 28.2739C162.728 26.5324 162.423 25.2344 161.812 24.3799C161.202 23.5254 160.258 23.0981 158.98 23.0981ZM174.483 21.377C175.077 21.377 175.611 21.4258 176.083 21.5234L175.802 23.4033C175.248 23.2812 174.76 23.2202 174.337 23.2202C173.255 23.2202 172.327 23.6597 171.554 24.5386C170.789 25.4175 170.406 26.512 170.406 27.8223V35H168.38V21.6211H170.052L170.284 24.0991H170.382C170.878 23.2284 171.476 22.557 172.176 22.085C172.876 21.613 173.645 21.377 174.483 21.377ZM186.812 35L186.41 33.0957H186.312C185.645 33.9339 184.977 34.5036 184.31 34.8047C183.651 35.0977 182.825 35.2441 181.832 35.2441C180.506 35.2441 179.464 34.9023 178.707 34.2188C177.958 33.5352 177.584 32.5627 177.584 31.3013C177.584 28.5994 179.745 27.1834 184.066 27.0532L186.336 26.98V26.1499C186.336 25.1001 186.109 24.327 185.653 23.8306C185.205 23.326 184.485 23.0737 183.492 23.0737C182.377 23.0737 181.116 23.4155 179.708 24.0991L179.085 22.5488C179.745 22.1908 180.465 21.91 181.246 21.7065C182.035 21.5031 182.825 21.4014 183.614 21.4014C185.209 21.4014 186.389 21.7554 187.154 22.4634C187.927 23.1714 188.314 24.3066 188.314 25.8691V35H186.812ZM182.235 33.5718C183.496 33.5718 184.485 33.2259 185.201 32.5342C185.925 31.8424 186.288 30.874 186.288 29.6289V28.4204L184.261 28.5059C182.65 28.5628 181.486 28.8151 180.77 29.2627C180.062 29.7021 179.708 30.3898 179.708 31.3257C179.708 32.0581 179.928 32.6156 180.367 32.998C180.815 33.3805 181.437 33.5718 182.235 33.5718Z" fill="#1F2223"/>
<defs>
<filter id="filter0_d_22_4" x="0" y="0" width="220" height="58" filterUnits="userSpaceOnUse" color-interpolation-filters="sRGB">
<feFlood flood-opacity="0" result="BackgroundImageFix"/>
<feColorMatrix in="SourceAlpha" type="matrix" values="0 0 0 0 0 0 0 0 0 0 0 0 0 0 0 0 0 0 127 0" result="hardAlpha"/>
<feOffset dy="4"/>
<feGaussianBlur stdDeviation="2"/>
<feComposite in2="hardAlpha" operator="out"/>
<feColorMatrix type="matrix" values="0 0 0 0 0 0 0 0 0 0 0 0 0 0 0 0 0 0 0.25 0"/>
<feBlend mode="normal" in2="BackgroundImageFix" result="effect1_dropShadow_22_4"/>
<feBlend mode="normal" in="SourceGraphic" in2="effect1_dropShadow_22_4" result="shape"/>
</filter>
<filter id="filter1_d_22_4" x="0" y="0" width="220" height="58" filterUnits="userSpaceOnUse" color-interpolation-filters="sRGB">
<feFlood flood-opacity="0" result="BackgroundImageFix"/>
<feColorMatrix in="SourceAlpha" type="matrix" values="0 0 0 0 0 0 0 0 0 0 0 0 0 0 0 0 0 0 127 0" result="hardAlpha"/>
<feOffset dy="4"/>
<feGaussianBlur stdDeviation="2"/>
<feComposite in2="hardAlpha" operator="out"/>
<feColorMatrix type="matrix" values="0 0 0 0 0 0 0 0 0 0 0 0 0 0 0 0 0 0 0.25 0"/>
<feBlend mode="normal" in2="BackgroundImageFix" result="effect1_dropShadow_22_4"/>
<feBlend mode="normal" in="SourceGraphic" in2="effect1_dropShadow_22_4" result="shape"/>
</filter>
</defs>
</svg>
