<svg width="78" height="82" viewBox="0 0 78 82" fill="none" xmlns="http://www.w3.org/2000/svg">
<rect width="78" height="82" rx="15" fill="url(#paint0_linear_1_310)"/>
<path d="M48.67 39.08V40.925C48.67 43.145 48.595 45.005 48.445 46.505C48.295 48.005 47.995 49.415 47.545 50.735C47.095 52.055 46.465 53.105 45.655 53.885C44.845 54.635 43.78 55.22 42.46 55.64C41.17 56.06 39.595 56.27 37.735 56.27C35.875 56.27 34.285 56.06 32.965 55.64C31.675 55.19 30.625 54.59 29.815 53.84C29.005 53.09 28.375 52.055 27.925 50.735C27.475 49.385 27.175 47.96 27.025 46.46C26.875 44.96 26.8 43.085 26.8 40.835V39.125C26.8 34.505 27.16 31.1 27.88 28.91C28.33 27.59 28.96 26.57 29.77 25.85C31.48 24.41 34.135 23.69 37.735 23.69C41.935 23.69 44.8 24.83 46.33 27.11C47.89 29.39 48.67 33.38 48.67 39.08ZM42.64 42.32V37.325C42.61 34.355 42.28 32.27 41.65 31.07C41.02 29.87 39.715 29.27 37.735 29.27C35.755 29.27 34.45 29.87 33.82 31.07C33.19 32.24 32.86 34.265 32.83 37.145V42.32C32.86 45.53 33.175 47.735 33.775 48.935C34.375 50.105 35.71 50.69 37.78 50.69C39.85 50.69 41.17 50.12 41.74 48.98C42.31 47.84 42.61 45.62 42.64 42.32Z" fill="#1F2223"/>
<path d="M67.2 72H65.024V62.656L63.632 62.144V60.592H65.52C66.224 60.592 66.6773 60.72 66.88 60.976C67.0933 61.232 67.2 61.7387 67.2 62.496V72Z" fill="black"/>
<defs>
<linearGradient id="paint0_linear_1_310" x1="1.73059e-07" y1="5.5" x2="55" y2="82" gradientUnits="userSpaceOnUse">
<stop stop-color="#CEF4F7"/>
<stop offset="1" stop-color="#AFD6DF"/>
</linearGradient>
</defs>
</svg>
