<svg width="78" height="82" viewBox="0 0 78 82" fill="none" xmlns="http://www.w3.org/2000/svg">
<rect width="78" height="82" rx="15" fill="url(#paint0_linear_1_354)"/>
<path d="M48.94 26.75C50.8 28.58 51.73 31.28 51.73 34.85C51.73 38.42 50.8 41.135 48.94 42.995C47.11 44.825 44.515 45.74 41.155 45.74H34.99V56H28.735V23.96H41.155C44.515 23.96 47.11 24.89 48.94 26.75ZM45.475 34.85C45.475 31.31 43.93 29.54 40.84 29.54H34.99V40.115H40.84C42.34 40.115 43.48 39.71 44.26 38.9C45.07 38.09 45.475 36.74 45.475 34.85Z" fill="#1F2223"/>
<path d="M65.824 66.8L66.176 65.04L67.168 65.504C67.5733 64.992 67.776 64.3253 67.776 63.504C67.776 63.2907 67.648 63.056 67.392 62.8C67.1467 62.544 66.7573 62.416 66.224 62.416C65.7013 62.416 65.344 62.5333 65.152 62.768C64.96 63.0027 64.864 63.4453 64.864 64.096H62.912C62.912 62.8693 63.1893 61.968 63.744 61.392C64.3093 60.8053 65.1573 60.512 66.288 60.512C68.6133 60.512 69.776 61.504 69.776 63.488C69.776 64.6507 69.424 65.5947 68.72 66.32C69.5307 66.7787 69.936 67.648 69.936 68.928C69.936 69.92 69.616 70.6987 68.976 71.264C68.3467 71.8187 67.4613 72.096 66.32 72.096C65.1787 72.096 64.3253 71.8027 63.76 71.216C63.2053 70.6293 62.928 69.8453 62.928 68.864H64.96C64.96 69.0453 64.9813 69.2267 65.024 69.408C65.0773 69.5787 65.2053 69.7547 65.408 69.936C65.6107 70.1067 65.9307 70.192 66.368 70.192C66.816 70.192 67.1733 70.0533 67.44 69.776C67.7173 69.488 67.856 69.168 67.856 68.816C67.856 68.4427 67.7867 68.1707 67.648 68C67.52 67.8293 67.424 67.7067 67.36 67.632C67.296 67.5467 67.1733 67.456 66.992 67.36C66.8213 67.264 66.704 67.2 66.64 67.168C66.576 67.1253 66.432 67.0613 66.208 66.976C65.9947 66.88 65.8667 66.8213 65.824 66.8Z" fill="black"/>
<defs>
<linearGradient id="paint0_linear_1_354" x1="1.73059e-07" y1="5.5" x2="55" y2="82" gradientUnits="userSpaceOnUse">
<stop stop-color="#CEF4F7"/>
<stop offset="1" stop-color="#AFD6DF"/>
</linearGradient>
</defs>
</svg>
