<svg width="220" height="58" viewBox="0 0 220 58" fill="none" xmlns="http://www.w3.org/2000/svg">
<g filter="url(#filter0_d_22_3)">
<path d="M4 15C4 6.71573 10.7157 0 19 0H201C209.284 0 216 6.71573 216 15V35C216 43.2843 209.284 50 201 50H19C10.7157 50 4 43.2843 4 35V15Z" fill="#F0DEDC"/>
</g>
<g filter="url(#filter1_d_22_3)">
<path d="M4 15C4 6.71573 10.7157 0 19 0H201C209.284 0 216 6.71573 216 15V35C216 43.2843 209.284 50 201 50H19C10.7157 50 4 43.2843 4 35V15Z" fill="#E7D1CE"/>
</g>
<path d="M78.7695 22.3535C78.7695 24.1602 78.151 25.5518 76.9141 26.5283C75.6852 27.4967 73.9233 27.981 71.6284 27.981H69.5288V35H67.4536V17.1533H72.0801C76.5397 17.1533 78.7695 18.8867 78.7695 22.3535ZM69.5288 26.1987H71.3965C73.2357 26.1987 74.5662 25.9017 75.3882 25.3076C76.2101 24.7135 76.6211 23.7614 76.6211 22.4512C76.6211 21.2712 76.2345 20.3923 75.4614 19.8145C74.6883 19.2367 73.4839 18.9478 71.8481 18.9478H69.5288V26.1987ZM84.1162 21.6211V30.3003C84.1162 31.3908 84.3644 32.2046 84.8608 32.7417C85.3573 33.2788 86.1344 33.5474 87.1924 33.5474C88.5921 33.5474 89.6134 33.1649 90.2563 32.3999C90.9074 31.6349 91.2329 30.3857 91.2329 28.6523V21.6211H93.2593V35H91.5869L91.2939 33.2056H91.1841C90.769 33.8647 90.1912 34.3693 89.4507 34.7192C88.7183 35.0692 87.88 35.2441 86.936 35.2441C85.3084 35.2441 84.0877 34.8576 83.2739 34.0845C82.4683 33.3114 82.0654 32.0744 82.0654 30.3735V21.6211H84.1162ZM106.724 35V26.3452C106.724 25.2547 106.475 24.4409 105.979 23.9038C105.483 23.3667 104.705 23.0981 103.647 23.0981C102.248 23.0981 101.222 23.4766 100.571 24.2334C99.9202 24.9902 99.5947 26.2394 99.5947 27.981V35H97.5684V21.6211H99.2163L99.5459 23.4521H99.6436C100.059 22.793 100.64 22.2843 101.389 21.9263C102.138 21.5601 102.972 21.377 103.892 21.377C105.503 21.377 106.715 21.7676 107.529 22.5488C108.343 23.3219 108.75 24.563 108.75 26.272V35H106.724ZM117.246 33.5718C117.604 33.5718 117.95 33.5474 118.284 33.4985C118.617 33.4416 118.882 33.3846 119.077 33.3276V34.8779C118.857 34.9837 118.532 35.0692 118.101 35.1343C117.677 35.2075 117.295 35.2441 116.953 35.2441C114.365 35.2441 113.071 33.881 113.071 31.1548V23.1958H111.155V22.2192L113.071 21.377L113.926 18.5205H115.098V21.6211H118.979V23.1958H115.098V31.0693C115.098 31.875 115.289 32.4935 115.671 32.9248C116.054 33.3561 116.579 33.5718 117.246 33.5718ZM129.99 35L129.587 33.0957H129.49C128.822 33.9339 128.155 34.5036 127.488 34.8047C126.829 35.0977 126.003 35.2441 125.01 35.2441C123.683 35.2441 122.642 34.9023 121.885 34.2188C121.136 33.5352 120.762 32.5627 120.762 31.3013C120.762 28.5994 122.922 27.1834 127.244 27.0532L129.514 26.98V26.1499C129.514 25.1001 129.286 24.327 128.831 23.8306C128.383 23.326 127.663 23.0737 126.67 23.0737C125.555 23.0737 124.294 23.4155 122.886 24.0991L122.263 22.5488C122.922 22.1908 123.643 21.91 124.424 21.7065C125.213 21.5031 126.003 21.4014 126.792 21.4014C128.387 21.4014 129.567 21.7554 130.332 22.4634C131.105 23.1714 131.492 24.3066 131.492 25.8691V35H129.99ZM125.413 33.5718C126.674 33.5718 127.663 33.2259 128.379 32.5342C129.103 31.8424 129.465 30.874 129.465 29.6289V28.4204L127.439 28.5059C125.828 28.5628 124.664 28.8151 123.948 29.2627C123.24 29.7021 122.886 30.3898 122.886 31.3257C122.886 32.0581 123.105 32.6156 123.545 32.998C123.993 33.3805 124.615 33.5718 125.413 33.5718ZM134.055 41.0059C133.282 41.0059 132.655 40.9041 132.175 40.7007V39.0527C132.737 39.2155 133.29 39.2969 133.835 39.2969C134.47 39.2969 134.934 39.1219 135.227 38.772C135.528 38.4302 135.679 37.9053 135.679 37.1973V21.6211H137.705V37.0508C137.705 39.6875 136.488 41.0059 134.055 41.0059ZM135.508 17.9956C135.508 17.5317 135.622 17.194 135.85 16.9824C136.077 16.7627 136.362 16.6528 136.704 16.6528C137.03 16.6528 137.31 16.7627 137.546 16.9824C137.782 17.2021 137.9 17.5399 137.9 17.9956C137.9 18.4513 137.782 18.7931 137.546 19.021C137.31 19.2407 137.03 19.3506 136.704 19.3506C136.362 19.3506 136.077 19.2407 135.85 19.021C135.622 18.7931 135.508 18.4513 135.508 17.9956ZM147.654 35.2441C145.676 35.2441 144.114 34.6419 142.966 33.4375C141.827 32.2331 141.257 30.5607 141.257 28.4204C141.257 26.2638 141.786 24.5508 142.844 23.2812C143.91 22.0117 145.339 21.377 147.129 21.377C148.805 21.377 150.132 21.9303 151.108 23.0371C152.085 24.1357 152.573 25.5884 152.573 27.395V28.6768H143.357C143.398 30.2474 143.792 31.4396 144.541 32.2534C145.298 33.0672 146.36 33.4741 147.727 33.4741C149.167 33.4741 150.592 33.173 152 32.5708V34.3774C151.283 34.6867 150.604 34.9064 149.961 35.0366C149.326 35.175 148.557 35.2441 147.654 35.2441ZM147.104 23.0737C146.03 23.0737 145.172 23.4237 144.529 24.1235C143.894 24.8234 143.52 25.7918 143.406 27.0288H150.4C150.4 25.7511 150.116 24.7746 149.546 24.0991C148.976 23.4155 148.162 23.0737 147.104 23.0737Z" fill="#1F2223"/>
<defs>
<filter id="filter0_d_22_3" x="0" y="0" width="220" height="58" filterUnits="userSpaceOnUse" color-interpolation-filters="sRGB">
<feFlood flood-opacity="0" result="BackgroundImageFix"/>
<feColorMatrix in="SourceAlpha" type="matrix" values="0 0 0 0 0 0 0 0 0 0 0 0 0 0 0 0 0 0 127 0" result="hardAlpha"/>
<feOffset dy="4"/>
<feGaussianBlur stdDeviation="2"/>
<feComposite in2="hardAlpha" operator="out"/>
<feColorMatrix type="matrix" values="0 0 0 0 0 0 0 0 0 0 0 0 0 0 0 0 0 0 0.25 0"/>
<feBlend mode="normal" in2="BackgroundImageFix" result="effect1_dropShadow_22_3"/>
<feBlend mode="normal" in="SourceGraphic" in2="effect1_dropShadow_22_3" result="shape"/>
</filter>
<filter id="filter1_d_22_3" x="0" y="0" width="220" height="58" filterUnits="userSpaceOnUse" color-interpolation-filters="sRGB">
<feFlood flood-opacity="0" result="BackgroundImageFix"/>
<feColorMatrix in="SourceAlpha" type="matrix" values="0 0 0 0 0 0 0 0 0 0 0 0 0 0 0 0 0 0 127 0" result="hardAlpha"/>
<feOffset dy="4"/>
<feGaussianBlur stdDeviation="2"/>
<feComposite in2="hardAlpha" operator="out"/>
<feColorMatrix type="matrix" values="0 0 0 0 0 0 0 0 0 0 0 0 0 0 0 0 0 0 0.25 0"/>
<feBlend mode="normal" in2="BackgroundImageFix" result="effect1_dropShadow_22_3"/>
<feBlend mode="normal" in="SourceGraphic" in2="effect1_dropShadow_22_3" result="shape"/>
</filter>
</defs>
</svg>
