<svg width="78" height="82" viewBox="0 0 78 82" fill="none" xmlns="http://www.w3.org/2000/svg">
<rect width="78" height="82" rx="15" fill="url(#paint0_linear_1_362)"/>
<path d="M52.225 39.08V40.925C52.225 46.025 50.95 49.55 48.4 51.5C50.05 51.41 51.58 51.155 52.99 50.735V56.27H39.49C37.63 56.27 35.845 55.97 34.135 55.37C32.425 54.74 30.94 53.81 29.68 52.58C28.45 51.32 27.655 49.82 27.295 48.08C26.935 46.34 26.755 43.925 26.755 40.835V39.125C26.755 36.035 26.935 33.62 27.295 31.88C27.655 30.14 28.45 28.655 29.68 27.425C30.94 26.165 32.425 25.235 34.135 24.635C35.845 24.005 37.63 23.69 39.49 23.69C41.35 23.69 43.12 24.005 44.8 24.635C46.51 25.235 47.995 26.18 49.255 27.47C50.545 28.73 51.355 30.185 51.685 31.835C52.045 33.485 52.225 35.9 52.225 39.08ZM45.97 40.655V38.495C45.97 34.745 45.46 32.285 44.44 31.115C43.42 29.885 41.77 29.27 39.49 29.27C37.21 29.27 35.53 29.9 34.45 31.16C33.67 32.09 33.22 33.71 33.1 36.02C33.04 36.77 33.01 37.805 33.01 39.125V40.79C33.04 43.97 33.28 46.145 33.73 47.315C34.57 49.565 36.49 50.69 39.49 50.69C42.1 50.69 43.84 49.94 44.71 48.44C45.28 47.36 45.625 46.31 45.745 45.29C45.895 44 45.97 42.455 45.97 40.655Z" fill="#1F2223"/>
<path d="M63.232 60.8H69.264V62.576H65.28V64.368C66.9227 64.368 68.048 64.704 68.656 65.376C69.2747 66.048 69.584 67.0293 69.584 68.32C69.584 70.8373 68.368 72.096 65.936 72.096C64.816 72.096 63.9733 71.8027 63.408 71.216C62.8533 70.6293 62.576 69.8453 62.576 68.864H64.608C64.608 69.0453 64.6293 69.2267 64.672 69.408C64.7253 69.5787 64.8533 69.7547 65.056 69.936C65.2587 70.1067 65.5307 70.192 65.872 70.192C66.4373 70.192 66.848 70.0373 67.104 69.728C67.3707 69.408 67.504 69.0347 67.504 68.608C67.504 68.1813 67.472 67.8453 67.408 67.6C67.3547 67.3547 67.232 67.104 67.04 66.848C66.656 66.3147 65.7973 66.048 64.464 66.048H63.232V60.8Z" fill="black"/>
<defs>
<linearGradient id="paint0_linear_1_362" x1="1.73059e-07" y1="5.5" x2="55" y2="82" gradientUnits="userSpaceOnUse">
<stop stop-color="#CEF4F7"/>
<stop offset="1" stop-color="#AFD6DF"/>
</linearGradient>
</defs>
</svg>
