<svg width="78" height="82" viewBox="0 0 78 82" fill="none" xmlns="http://www.w3.org/2000/svg">
<rect width="78" height="82" rx="15" fill="url(#paint0_linear_1_366)"/>
<path d="M52.99 56H45.745L39.49 44.12H34.99V56H28.735V30.845C28.735 28.445 29.29 26.705 30.4 25.625C31.51 24.515 33.37 23.96 35.98 23.96H41.29C44.47 23.96 46.99 24.935 48.85 26.885C50.74 28.805 51.685 31.25 51.685 34.22C51.685 36.38 51.115 38.255 49.975 39.845C48.865 41.405 47.485 42.485 45.835 43.085L52.99 56ZM40.885 38.9C42.205 38.9 43.285 38.45 44.125 37.55C44.995 36.62 45.43 35.48 45.43 34.13C45.43 32.75 45.01 31.64 44.17 30.8C43.36 29.96 42.265 29.54 40.885 29.54H37.78C35.92 29.54 34.99 30.485 34.99 32.375V38.9H40.885Z" fill="#1F2223"/>
<path d="M67.2 72H65.024V62.656L63.632 62.144V60.592H65.52C66.224 60.592 66.6773 60.72 66.88 60.976C67.0933 61.232 67.2 61.7387 67.2 62.496V72Z" fill="black"/>
<defs>
<linearGradient id="paint0_linear_1_366" x1="1.73059e-07" y1="5.5" x2="55" y2="82" gradientUnits="userSpaceOnUse">
<stop stop-color="#CEF4F7"/>
<stop offset="1" stop-color="#AFD6DF"/>
</linearGradient>
</defs>
</svg>
