<svg width="172" height="61" viewBox="0 0 172 61" fill="none" xmlns="http://www.w3.org/2000/svg">
<g filter="url(#filter0_d_10_71)">
<rect x="4" width="164" height="53" rx="15" fill="#CCDABE"/>
</g>
<path d="M31.4346 29.0938V38H28.9443V16.584H34.8184C37.4453 16.584 39.3838 17.0869 40.6338 18.0928C41.8936 19.0986 42.5234 20.6123 42.5234 22.6338C42.5234 25.4658 41.0879 27.3799 38.2168 28.376L44.0322 38H41.0879L35.9023 29.0938H31.4346ZM31.4346 26.9551H34.8477C36.6055 26.9551 37.8945 26.6084 38.7148 25.915C39.5352 25.2119 39.9453 24.1621 39.9453 22.7656C39.9453 21.3496 39.5254 20.3291 38.6855 19.7041C37.8555 19.0791 36.5176 18.7666 34.6719 18.7666H31.4346V26.9551ZM53.9053 38.293C51.5322 38.293 49.6572 37.5703 48.2803 36.125C46.9131 34.6797 46.2295 32.6729 46.2295 30.1045C46.2295 27.5166 46.8643 25.4609 48.1338 23.9375C49.4131 22.4141 51.127 21.6523 53.2754 21.6523C55.2871 21.6523 56.8789 22.3164 58.0508 23.6445C59.2227 24.9629 59.8086 26.7061 59.8086 28.874V30.4121H48.749C48.7979 32.2969 49.2715 33.7275 50.1699 34.7041C51.0781 35.6807 52.3525 36.1689 53.9932 36.1689C55.7217 36.1689 57.4307 35.8076 59.1201 35.085V37.2529C58.2607 37.624 57.4453 37.8877 56.6738 38.0439C55.9121 38.21 54.9893 38.293 53.9053 38.293ZM53.2461 23.6885C51.957 23.6885 50.9268 24.1084 50.1553 24.9482C49.3936 25.7881 48.9443 26.9502 48.8076 28.4346H57.2012C57.2012 26.9014 56.8594 25.7295 56.1758 24.9189C55.4922 24.0986 54.5156 23.6885 53.2461 23.6885ZM66.4004 38H63.9688V21.9453H66.4004V38ZM63.7637 17.5947C63.7637 17.0381 63.9004 16.6328 64.1738 16.3789C64.4473 16.1152 64.7891 15.9834 65.1992 15.9834C65.5898 15.9834 65.9268 16.1152 66.21 16.3789C66.4932 16.6426 66.6348 17.0479 66.6348 17.5947C66.6348 18.1416 66.4932 18.5518 66.21 18.8252C65.9268 19.0889 65.5898 19.2207 65.1992 19.2207C64.7891 19.2207 64.4473 19.0889 64.1738 18.8252C63.9004 18.5518 63.7637 18.1416 63.7637 17.5947ZM82.543 38V27.6143C82.543 26.3057 82.2451 25.3291 81.6494 24.6846C81.0537 24.04 80.1211 23.7178 78.8516 23.7178C77.1719 23.7178 75.9414 24.1719 75.1602 25.0801C74.3789 25.9883 73.9883 27.4873 73.9883 29.5771V38H71.5566V21.9453H73.5342L73.9297 24.1426H74.0469C74.5449 23.3516 75.2432 22.7412 76.1416 22.3115C77.04 21.8721 78.041 21.6523 79.1445 21.6523C81.0781 21.6523 82.5332 22.1211 83.5098 23.0586C84.4863 23.9863 84.9746 25.4756 84.9746 27.5264V38H82.543ZM92.416 38H89.9844V21.9453H92.416V38ZM89.7793 17.5947C89.7793 17.0381 89.916 16.6328 90.1895 16.3789C90.4629 16.1152 90.8047 15.9834 91.2148 15.9834C91.6055 15.9834 91.9424 16.1152 92.2256 16.3789C92.5088 16.6426 92.6504 17.0479 92.6504 17.5947C92.6504 18.1416 92.5088 18.5518 92.2256 18.8252C91.9424 19.0889 91.6055 19.2207 91.2148 19.2207C90.8047 19.2207 90.4629 19.0889 90.1895 18.8252C89.916 18.5518 89.7793 18.1416 89.7793 17.5947ZM103.988 38.293C101.664 38.293 99.8623 37.5801 98.583 36.1543C97.3135 34.7188 96.6787 32.6924 96.6787 30.0752C96.6787 27.3896 97.3232 25.3145 98.6123 23.8496C99.9111 22.3848 101.757 21.6523 104.149 21.6523C104.921 21.6523 105.692 21.7354 106.464 21.9014C107.235 22.0674 107.841 22.2627 108.28 22.4873L107.533 24.5527C106.996 24.3379 106.41 24.1621 105.775 24.0254C105.141 23.8789 104.579 23.8057 104.091 23.8057C100.829 23.8057 99.1982 25.8857 99.1982 30.0459C99.1982 32.0186 99.5938 33.5322 100.385 34.5869C101.186 35.6416 102.367 36.1689 103.93 36.1689C105.268 36.1689 106.64 35.8809 108.046 35.3047V37.458C106.972 38.0146 105.619 38.293 103.988 38.293ZM114.301 38H111.869V21.9453H114.301V38ZM111.664 17.5947C111.664 17.0381 111.801 16.6328 112.074 16.3789C112.348 16.1152 112.689 15.9834 113.1 15.9834C113.49 15.9834 113.827 16.1152 114.11 16.3789C114.394 16.6426 114.535 17.0479 114.535 17.5947C114.535 18.1416 114.394 18.5518 114.11 18.8252C113.827 19.0889 113.49 19.2207 113.1 19.2207C112.689 19.2207 112.348 19.0889 112.074 18.8252C111.801 18.5518 111.664 18.1416 111.664 17.5947ZM129.33 38L128.847 35.7148H128.729C127.929 36.7207 127.128 37.4043 126.327 37.7656C125.536 38.1172 124.545 38.293 123.354 38.293C121.762 38.293 120.512 37.8828 119.604 37.0625C118.705 36.2422 118.256 35.0752 118.256 33.5615C118.256 30.3193 120.849 28.6201 126.034 28.4639L128.759 28.376V27.3799C128.759 26.1201 128.485 25.1924 127.938 24.5967C127.401 23.9912 126.537 23.6885 125.346 23.6885C124.008 23.6885 122.494 24.0986 120.805 24.9189L120.058 23.0586C120.849 22.6289 121.713 22.292 122.65 22.0479C123.598 21.8037 124.545 21.6816 125.492 21.6816C127.406 21.6816 128.822 22.1064 129.74 22.9561C130.668 23.8057 131.132 25.168 131.132 27.043V38H129.33ZM123.837 36.2861C125.351 36.2861 126.537 35.8711 127.396 35.041C128.266 34.2109 128.7 33.0488 128.7 31.5547V30.1045L126.269 30.207C124.335 30.2754 122.938 30.5781 122.079 31.1152C121.229 31.6426 120.805 32.4678 120.805 33.5908C120.805 34.4697 121.068 35.1387 121.596 35.5977C122.133 36.0566 122.88 36.2861 123.837 36.2861ZM143.48 21.6523C144.193 21.6523 144.833 21.7109 145.399 21.8281L145.062 24.084C144.398 23.9375 143.812 23.8643 143.305 23.8643C142.006 23.8643 140.893 24.3916 139.965 25.4463C139.047 26.501 138.588 27.8145 138.588 29.3867V38H136.156V21.9453H138.163L138.441 24.9189H138.559C139.154 23.874 139.872 23.0684 140.712 22.502C141.552 21.9355 142.475 21.6523 143.48 21.6523Z" fill="#1F2223"/>
<defs>
<filter id="filter0_d_10_71" x="0" y="0" width="172" height="61" filterUnits="userSpaceOnUse" color-interpolation-filters="sRGB">
<feFlood flood-opacity="0" result="BackgroundImageFix"/>
<feColorMatrix in="SourceAlpha" type="matrix" values="0 0 0 0 0 0 0 0 0 0 0 0 0 0 0 0 0 0 127 0" result="hardAlpha"/>
<feOffset dy="4"/>
<feGaussianBlur stdDeviation="2"/>
<feComposite in2="hardAlpha" operator="out"/>
<feColorMatrix type="matrix" values="0 0 0 0 0 0 0 0 0 0 0 0 0 0 0 0 0 0 0.25 0"/>
<feBlend mode="normal" in2="BackgroundImageFix" result="effect1_dropShadow_10_71"/>
<feBlend mode="normal" in="SourceGraphic" in2="effect1_dropShadow_10_71" result="shape"/>
</filter>
</defs>
</svg>
