<svg width="78" height="82" viewBox="0 0 78 82" fill="none" xmlns="http://www.w3.org/2000/svg">
<rect width="78" height="82" rx="15" fill="url(#paint0_linear_1_386)"/>
<path d="M37.99 56H30.745L24.49 44.12H19.99V56H13.735V30.845C13.735 28.445 14.29 26.705 15.4 25.625C16.51 24.515 18.37 23.96 20.98 23.96H26.29C29.47 23.96 31.99 24.935 33.85 26.885C35.74 28.805 36.685 31.25 36.685 34.22C36.685 36.38 36.115 38.255 34.975 39.845C33.865 41.405 32.485 42.485 30.835 43.085L37.99 56ZM25.885 38.9C27.205 38.9 28.285 38.45 29.125 37.55C29.995 36.62 30.43 35.48 30.43 34.13C30.43 32.75 30.01 31.64 29.17 30.8C28.36 29.96 27.265 29.54 25.885 29.54H22.78C20.92 29.54 19.99 30.485 19.99 32.375V38.9H25.885ZM67.4334 56H60.1884L53.9334 44.12H49.4334V56H43.1784V30.845C43.1784 28.445 43.7334 26.705 44.8434 25.625C45.9534 24.515 47.8134 23.96 50.4234 23.96H55.7334C58.9134 23.96 61.4334 24.935 63.2934 26.885C65.1834 28.805 66.1284 31.25 66.1284 34.22C66.1284 36.38 65.5584 38.255 64.4184 39.845C63.3084 41.405 61.9284 42.485 60.2784 43.085L67.4334 56ZM55.3284 38.9C56.6484 38.9 57.7284 38.45 58.5684 37.55C59.4384 36.62 59.8734 35.48 59.8734 34.13C59.8734 32.75 59.4534 31.64 58.6134 30.8C57.8034 29.96 56.7084 29.54 55.3284 29.54H52.2234C50.3634 29.54 49.4334 30.485 49.4334 32.375V38.9H55.3284Z" fill="#1F2223"/>
<path d="M62.832 68.848C62.832 68.4107 62.9333 67.92 63.136 67.376C63.3387 66.832 63.5733 66.3627 63.84 65.968C63.2747 65.424 62.992 64.6507 62.992 63.648C62.992 61.5573 64.1547 60.512 66.48 60.512C67.632 60.512 68.528 60.768 69.168 61.28C69.808 61.792 70.128 62.5867 70.128 63.664C70.128 64.7413 69.7493 65.728 68.992 66.624C69.7493 67.136 70.128 67.8773 70.128 68.848C70.128 70.0533 69.8293 70.896 69.232 71.376C68.6347 71.856 67.728 72.096 66.512 72.096C65.3067 72.096 64.3893 71.824 63.76 71.28C63.1413 70.7253 62.832 69.9147 62.832 68.848ZM65.12 63.84C65.12 64.192 65.2907 64.5173 65.632 64.816C65.984 65.1147 66.592 65.4667 67.456 65.872C67.9147 65.296 68.144 64.64 68.144 63.904C68.144 63.456 68.0107 63.0987 67.744 62.832C67.4773 62.5547 67.072 62.416 66.528 62.416C65.5893 62.416 65.12 62.8907 65.12 63.84ZM64.912 68.912C64.912 69.2747 65.0453 69.568 65.312 69.792C65.5893 70.016 65.9947 70.128 66.528 70.128C67.072 70.128 67.4613 70.0267 67.696 69.824C67.9307 69.6213 68.048 69.3067 68.048 68.88C68.048 68.5813 67.84 68.2507 67.424 67.888C67.008 67.5253 66.3627 67.1627 65.488 66.8C65.104 67.3867 64.912 68.0907 64.912 68.912Z" fill="black"/>
<defs>
<linearGradient id="paint0_linear_1_386" x1="1.73059e-07" y1="5.5" x2="55" y2="82" gradientUnits="userSpaceOnUse">
<stop stop-color="#CEF4F7"/>
<stop offset="1" stop-color="#AFD6DF"/>
</linearGradient>
</defs>
</svg>
