<svg width="78" height="82" viewBox="0 0 78 82" fill="none" xmlns="http://www.w3.org/2000/svg">
<rect width="78" height="82" rx="15" fill="url(#paint0_linear_1_390)"/>
<path d="M50.335 46.55C50.335 49.58 49.225 51.965 47.005 53.705C44.785 55.415 41.95 56.27 38.5 56.27C35.77 56.27 33.13 55.52 30.58 54.02C29.32 53.24 28.285 52.145 27.475 50.735C26.665 49.295 26.26 47.66 26.26 45.83L31.93 45.56C31.93 47.18 32.62 48.44 34 49.34C35.38 50.24 36.91 50.69 38.59 50.69C42.34 50.69 44.215 49.37 44.215 46.73C44.215 44.57 42.94 43.295 40.39 42.905L35.17 42.365C32.56 41.975 30.49 41.045 28.96 39.575C27.43 38.105 26.665 35.99 26.665 33.23C26.665 30.47 27.76 28.19 29.95 26.39C32.14 24.59 34.9 23.69 38.23 23.69C41.59 23.69 44.29 24.545 46.33 26.255C48.37 27.935 49.39 30.11 49.39 32.78L43.81 33.05C43.3 30.44 41.545 29.135 38.545 29.135C36.715 29.135 35.275 29.525 34.225 30.305C33.205 31.085 32.695 32.015 32.695 33.095C32.695 34.145 33.07 34.985 33.82 35.615C34.57 36.215 35.5 36.59 36.61 36.74L41.74 37.28C47.47 38.06 50.335 41.15 50.335 46.55Z" fill="#1F2223"/>
<path d="M67.2 72H65.024V62.656L63.632 62.144V60.592H65.52C66.224 60.592 66.6773 60.72 66.88 60.976C67.0933 61.232 67.2 61.7387 67.2 62.496V72Z" fill="black"/>
<defs>
<linearGradient id="paint0_linear_1_390" x1="1.73059e-07" y1="5.5" x2="55" y2="82" gradientUnits="userSpaceOnUse">
<stop stop-color="#CEF4F7"/>
<stop offset="1" stop-color="#AFD6DF"/>
</linearGradient>
</defs>
</svg>
