<svg width="220" height="58" viewBox="0 0 220 58" fill="none" xmlns="http://www.w3.org/2000/svg">
<g filter="url(#filter0_d_22_2)">
<path d="M4 15C4 6.71573 10.7157 0 19 0H201C209.284 0 216 6.71573 216 15V35C216 43.2843 209.284 50 201 50H19C10.7157 50 4 43.2843 4 35V15Z" fill="#F0DEDC"/>
</g>
<g filter="url(#filter1_d_22_2)">
<path d="M4 15C4 6.71573 10.7157 0 19 0H201C209.284 0 216 6.71573 216 15V35C216 43.2843 209.284 50 201 50H19C10.7157 50 4 43.2843 4 35V15Z" fill="#E7D1CE"/>
</g>
<path d="M73.9468 35H71.8716V18.9966H66.2197V17.1533H79.5986V18.9966H73.9468V35ZM84.0176 35H81.9912V21.6211H84.0176V35ZM81.8203 17.9956C81.8203 17.5317 81.9342 17.194 82.1621 16.9824C82.39 16.7627 82.6748 16.6528 83.0166 16.6528C83.3421 16.6528 83.6229 16.7627 83.8589 16.9824C84.0949 17.2021 84.2129 17.5399 84.2129 17.9956C84.2129 18.4513 84.0949 18.7931 83.8589 19.021C83.6229 19.2407 83.3421 19.3506 83.0166 19.3506C82.6748 19.3506 82.39 19.2407 82.1621 19.021C81.9342 18.7931 81.8203 18.4513 81.8203 17.9956ZM93.9663 35.2441C91.9888 35.2441 90.4263 34.6419 89.2788 33.4375C88.1395 32.2331 87.5698 30.5607 87.5698 28.4204C87.5698 26.2638 88.0988 24.5508 89.1567 23.2812C90.2228 22.0117 91.651 21.377 93.4414 21.377C95.1178 21.377 96.4443 21.9303 97.4209 23.0371C98.3975 24.1357 98.8857 25.5884 98.8857 27.395V28.6768H89.6694C89.7101 30.2474 90.1048 31.4396 90.8535 32.2534C91.6104 33.0672 92.6724 33.4741 94.0396 33.4741C95.48 33.4741 96.9041 33.173 98.312 32.5708V34.3774C97.5959 34.6867 96.9163 34.9064 96.2734 35.0366C95.6387 35.175 94.8696 35.2441 93.9663 35.2441ZM93.417 23.0737C92.3428 23.0737 91.4842 23.4237 90.8413 24.1235C90.2065 24.8234 89.8322 25.7918 89.7183 27.0288H96.7129C96.7129 25.7511 96.4281 24.7746 95.8584 24.0991C95.2887 23.4155 94.4749 23.0737 93.417 23.0737ZM119.406 35V26.2964C119.406 25.2303 119.178 24.4328 118.722 23.9038C118.266 23.3667 117.558 23.0981 116.598 23.0981C115.337 23.0981 114.405 23.4603 113.803 24.1846C113.201 24.9089 112.899 26.0238 112.899 27.5293V35H110.873V26.2964C110.873 25.2303 110.645 24.4328 110.189 23.9038C109.734 23.3667 109.022 23.0981 108.053 23.0981C106.784 23.0981 105.852 23.4806 105.258 24.2456C104.672 25.0024 104.379 26.2476 104.379 27.981V35H102.353V21.6211H104L104.33 23.4521H104.428C104.81 22.8011 105.347 22.2925 106.039 21.9263C106.739 21.5601 107.52 21.377 108.383 21.377C110.474 21.377 111.841 22.1338 112.484 23.6475H112.582C112.981 22.9476 113.559 22.3942 114.315 21.9873C115.072 21.5804 115.935 21.377 116.903 21.377C118.417 21.377 119.548 21.7676 120.297 22.5488C121.054 23.3219 121.432 24.563 121.432 26.272V35H119.406ZM131.845 35.2441C130.974 35.2441 130.176 35.0854 129.452 34.7681C128.736 34.4425 128.134 33.9461 127.646 33.2788H127.499C127.597 34.0601 127.646 34.8006 127.646 35.5005V41.0059H125.619V21.6211H127.267L127.548 23.4521H127.646C128.166 22.7197 128.773 22.1908 129.464 21.8652C130.156 21.5397 130.95 21.377 131.845 21.377C133.619 21.377 134.986 21.9832 135.946 23.1958C136.915 24.4084 137.399 26.1092 137.399 28.2983C137.399 30.4956 136.907 32.2046 135.922 33.4253C134.945 34.6379 133.586 35.2441 131.845 35.2441ZM131.552 23.0981C130.185 23.0981 129.196 23.4766 128.585 24.2334C127.975 24.9902 127.662 26.1947 127.646 27.8467V28.2983C127.646 30.1782 127.959 31.5251 128.585 32.3389C129.212 33.1445 130.217 33.5474 131.601 33.5474C132.756 33.5474 133.66 33.0794 134.311 32.1436C134.97 31.2077 135.299 29.9178 135.299 28.2739C135.299 26.6056 134.97 25.328 134.311 24.4409C133.66 23.5457 132.74 23.0981 131.552 23.0981ZM152.499 28.2983C152.499 30.4793 151.95 32.1842 150.851 33.4131C149.752 34.6338 148.235 35.2441 146.298 35.2441C145.102 35.2441 144.04 34.9634 143.112 34.4019C142.184 33.8403 141.468 33.0347 140.963 31.9849C140.459 30.9351 140.207 29.7062 140.207 28.2983C140.207 26.1174 140.752 24.4206 141.842 23.208C142.933 21.9873 144.446 21.377 146.383 21.377C148.255 21.377 149.74 21.9995 150.839 23.2446C151.946 24.4897 152.499 26.1743 152.499 28.2983ZM142.306 28.2983C142.306 30.0073 142.648 31.3094 143.332 32.2046C144.015 33.0998 145.02 33.5474 146.347 33.5474C147.673 33.5474 148.678 33.1038 149.362 32.2168C150.054 31.3216 150.399 30.0155 150.399 28.2983C150.399 26.5975 150.054 25.3076 149.362 24.4287C148.678 23.5417 147.665 23.0981 146.322 23.0981C144.996 23.0981 143.995 23.5335 143.319 24.4043C142.644 25.2751 142.306 26.5731 142.306 28.2983Z" fill="#1F2223"/>
<defs>
<filter id="filter0_d_22_2" x="0" y="0" width="220" height="58" filterUnits="userSpaceOnUse" color-interpolation-filters="sRGB">
<feFlood flood-opacity="0" result="BackgroundImageFix"/>
<feColorMatrix in="SourceAlpha" type="matrix" values="0 0 0 0 0 0 0 0 0 0 0 0 0 0 0 0 0 0 127 0" result="hardAlpha"/>
<feOffset dy="4"/>
<feGaussianBlur stdDeviation="2"/>
<feComposite in2="hardAlpha" operator="out"/>
<feColorMatrix type="matrix" values="0 0 0 0 0 0 0 0 0 0 0 0 0 0 0 0 0 0 0.25 0"/>
<feBlend mode="normal" in2="BackgroundImageFix" result="effect1_dropShadow_22_2"/>
<feBlend mode="normal" in="SourceGraphic" in2="effect1_dropShadow_22_2" result="shape"/>
</filter>
<filter id="filter1_d_22_2" x="0" y="0" width="220" height="58" filterUnits="userSpaceOnUse" color-interpolation-filters="sRGB">
<feFlood flood-opacity="0" result="BackgroundImageFix"/>
<feColorMatrix in="SourceAlpha" type="matrix" values="0 0 0 0 0 0 0 0 0 0 0 0 0 0 0 0 0 0 127 0" result="hardAlpha"/>
<feOffset dy="4"/>
<feGaussianBlur stdDeviation="2"/>
<feComposite in2="hardAlpha" operator="out"/>
<feColorMatrix type="matrix" values="0 0 0 0 0 0 0 0 0 0 0 0 0 0 0 0 0 0 0.25 0"/>
<feBlend mode="normal" in2="BackgroundImageFix" result="effect1_dropShadow_22_2"/>
<feBlend mode="normal" in="SourceGraphic" in2="effect1_dropShadow_22_2" result="shape"/>
</filter>
</defs>
</svg>
