<svg width="78" height="82" viewBox="0 0 78 82" fill="none" xmlns="http://www.w3.org/2000/svg">
<rect width="78" height="82" rx="15" fill="url(#paint0_linear_1_438)"/>
<path d="M52.27 23.96V45.02C52.27 48.5 51.085 51.245 48.715 53.255C46.375 55.265 43.48 56.27 40.03 56.27C36.58 56.27 33.67 55.265 31.3 53.255C28.96 51.245 27.79 48.5 27.79 45.02V23.96H34.045V44.795C34.045 46.775 34.585 48.26 35.665 49.25C36.775 50.21 38.23 50.69 40.03 50.69C41.83 50.69 43.285 50.21 44.395 49.25C45.505 48.26 46.06 46.775 46.06 44.795V23.96H52.27Z" fill="#1F2223"/>
<path d="M67.2 72H65.024V62.656L63.632 62.144V60.592H65.52C66.224 60.592 66.6773 60.72 66.88 60.976C67.0933 61.232 67.2 61.7387 67.2 62.496V72Z" fill="black"/>
<defs>
<linearGradient id="paint0_linear_1_438" x1="1.73059e-07" y1="5.5" x2="55" y2="82" gradientUnits="userSpaceOnUse">
<stop stop-color="#CEF4F7"/>
<stop offset="1" stop-color="#AFD6DF"/>
</linearGradient>
</defs>
</svg>
