<svg width="78" height="82" viewBox="0 0 78 82" fill="none" xmlns="http://www.w3.org/2000/svg">
<rect width="78" height="82" rx="15" fill="url(#paint0_linear_1_470)"/>
<path d="M47.86 56H31.57C29.92 56 28.66 55.61 27.79 54.83C26.92 54.05 26.485 53.03 26.485 51.77C26.485 50.51 26.95 49.19 27.88 47.81L40.48 29.54H27.385V23.96H47.86V28.91L33.235 50.42H47.86V56Z" fill="#1F2223"/>
<path d="M61.2 72H59.024V62.656L57.632 62.144V60.592H59.52C60.224 60.592 60.6773 60.72 60.88 60.976C61.0933 61.232 61.2 61.7387 61.2 62.496V72ZM71.4316 65.984V66.64C71.4316 67.4293 71.405 68.0907 71.3516 68.624C71.2983 69.1573 71.1916 69.6587 71.0316 70.128C70.8716 70.5973 70.6476 70.9707 70.3596 71.248C70.0716 71.5147 69.693 71.7227 69.2236 71.872C68.765 72.0213 68.205 72.096 67.5436 72.096C66.8823 72.096 66.317 72.0213 65.8476 71.872C65.389 71.712 65.0156 71.4987 64.7276 71.232C64.4396 70.9653 64.2156 70.5973 64.0556 70.128C63.8956 69.648 63.789 69.1413 63.7356 68.608C63.6823 68.0747 63.6556 67.408 63.6556 66.608V66C63.6556 64.3573 63.7836 63.1467 64.0396 62.368C64.1996 61.8987 64.4236 61.536 64.7116 61.28C65.3196 60.768 66.2636 60.512 67.5436 60.512C69.037 60.512 70.0556 60.9173 70.5996 61.728C71.1543 62.5387 71.4316 63.9573 71.4316 65.984ZM69.2876 67.136V65.36C69.277 64.304 69.1596 63.5627 68.9356 63.136C68.7116 62.7093 68.2476 62.496 67.5436 62.496C66.8396 62.496 66.3756 62.7093 66.1516 63.136C65.9276 63.552 65.8103 64.272 65.7996 65.296V67.136C65.8103 68.2773 65.9223 69.0613 66.1356 69.488C66.349 69.904 66.8236 70.112 67.5596 70.112C68.2956 70.112 68.765 69.9093 68.9676 69.504C69.1703 69.0987 69.277 68.3093 69.2876 67.136Z" fill="black"/>
<defs>
<linearGradient id="paint0_linear_1_470" x1="1.73059e-07" y1="5.5" x2="55" y2="82" gradientUnits="userSpaceOnUse">
<stop stop-color="#CEF4F7"/>
<stop offset="1" stop-color="#AFD6DF"/>
</linearGradient>
</defs>
</svg>
