<svg width="78" height="82" viewBox="0 0 78 82" fill="none" xmlns="http://www.w3.org/2000/svg">
<rect width="78" height="82" rx="15" fill="url(#paint0_linear_1_306)"/>
<path d="M53.71 23.96V52.76C53.71 53.75 53.41 54.605 52.81 55.325C52.21 56.015 51.505 56.36 50.695 56.36C48.625 56.36 46.93 55.16 45.61 52.76L34.54 35.435V56H28.285V23.96H34.315L47.455 44.93V23.96H53.71ZM47.05 15.455L49.12 17.705C47.35 19.475 45.655 20.36 44.035 20.36C42.925 20.36 41.83 20.06 40.75 19.46C39.7 18.83 38.695 18.515 37.735 18.515C36.805 18.515 35.935 18.875 35.125 19.595L32.875 17.255C33.865 16.265 34.735 15.575 35.485 15.185C36.235 14.795 37.12 14.6 38.14 14.6C39.16 14.6 40.195 14.915 41.245 15.545C42.325 16.175 43.375 16.49 44.395 16.49C45.445 16.49 46.33 16.145 47.05 15.455Z" fill="#1F2223"/>
<path d="M62.832 68.848C62.832 68.4107 62.9333 67.92 63.136 67.376C63.3387 66.832 63.5733 66.3627 63.84 65.968C63.2747 65.424 62.992 64.6507 62.992 63.648C62.992 61.5573 64.1547 60.512 66.48 60.512C67.632 60.512 68.528 60.768 69.168 61.28C69.808 61.792 70.128 62.5867 70.128 63.664C70.128 64.7413 69.7493 65.728 68.992 66.624C69.7493 67.136 70.128 67.8773 70.128 68.848C70.128 70.0533 69.8293 70.896 69.232 71.376C68.6347 71.856 67.728 72.096 66.512 72.096C65.3067 72.096 64.3893 71.824 63.76 71.28C63.1413 70.7253 62.832 69.9147 62.832 68.848ZM65.12 63.84C65.12 64.192 65.2907 64.5173 65.632 64.816C65.984 65.1147 66.592 65.4667 67.456 65.872C67.9147 65.296 68.144 64.64 68.144 63.904C68.144 63.456 68.0107 63.0987 67.744 62.832C67.4773 62.5547 67.072 62.416 66.528 62.416C65.5893 62.416 65.12 62.8907 65.12 63.84ZM64.912 68.912C64.912 69.2747 65.0453 69.568 65.312 69.792C65.5893 70.016 65.9947 70.128 66.528 70.128C67.072 70.128 67.4613 70.0267 67.696 69.824C67.9307 69.6213 68.048 69.3067 68.048 68.88C68.048 68.5813 67.84 68.2507 67.424 67.888C67.008 67.5253 66.3627 67.1627 65.488 66.8C65.104 67.3867 64.912 68.0907 64.912 68.912Z" fill="black"/>
<defs>
<linearGradient id="paint0_linear_1_306" x1="1.73059e-07" y1="5.5" x2="55" y2="82" gradientUnits="userSpaceOnUse">
<stop stop-color="#CEF4F7"/>
<stop offset="1" stop-color="#AFD6DF"/>
</linearGradient>
</defs>
</svg>
